PathFileType	4	(X/Y/Z)	/Users/itak/Documents/Research/Walk-IL/dataset/trc/00024_00004.trc
DataRate	CameraRate	NumFrames	NumMarkers	Units	OrigDataRate	OrigDataStartFrame	OrigNumFrames
100.000000	100.000000	4	53	mm	100.000000	191	764
Frame#	Time	RPSI			LPSI			L3			STRN			T10			C7			CLAV			RBAK			LBAK			LSHO			LUPA			LAEL			LAOL			LWTS			LWPS			LFRA			LIFD			LHPS			LHTS			RSHO			RUPA			RAEL			RAOL			RWTS			RWPS			RFRA			RIFD			RHTS			RHPS			RBHD			LFHD			RFHD			LBHD			LHIP			RHIP			RASI			LASI			LKNE			LTHI			LANK			LTIP			LTOE			LMT1			LMT5			LHEE			RKNE			RTHI			RANK			RTIP			RTOE			RMT1			RMT5			RHEE			
		X1	Y1	Z1	X2	Y2	Z2	X3	Y3	Z3	X4	Y4	Z4	X5	Y5	Z5	X6	Y6	Z6	X7	Y7	Z7	X8	Y8	Z8	X9	Y9	Z9	X10	Y10	Z10	X11	Y11	Z11	X12	Y12	Z12	X13	Y13	Z13	X14	Y14	Z14	X15	Y15	Z15	X16	Y16	Z16	X17	Y17	Z17	X18	Y18	Z18	X19	Y19	Z19	X20	Y20	Z20	X21	Y21	Z21	X22	Y22	Z22	X23	Y23	Z23	X24	Y24	Z24	X25	Y25	Z25	X26	Y26	Z26	X27	Y27	Z27	X28	Y28	Z28	X29	Y29	Z29	X30	Y30	Z30	X31	Y31	Z31	X32	Y32	Z32	X33	Y33	Z33	X34	Y34	Z34	X35	Y35	Z35	X36	Y36	Z36	X37	Y37	Z37	X38	Y38	Z38	X39	Y39	Z39	X40	Y40	Z40	X41	Y41	Z41	X42	Y42	Z42	X43	Y43	Z43	X44	Y44	Z44	X45	Y45	Z45	X46	Y46	Z46	X47	Y47	Z47	X48	Y48	Z48	X49	Y49	Z49	X50	Y50	Z50	X51	Y51	Z51	X52	Y52	Z52	X53	Y53	Z53	

192	1.91	856.8521728515625	1030.232055664062	592.3294067382812	703.5853271484375	1017.369384765625	539.1870727539062	762.7435302734375	1087.809814453125	565.810791015625	853.0843505859375	1272.393798828125	354.7247619628906	735.1621704101562	1230.8935546875	580.0452880859375	738.3882446289062	1495.75048828125	513.50341796875	823.6524047851562	1397.976440429688	385.7965393066406	784.8654174804688	1365.854858398438	609.8355102539062	646.7572021484375	1450.106689453125	485.5878601074219	631.7012939453125	1448.88525390625	361.7913513183594	547.4269409179688	1325.066162109375	361.7876281738281	517.4068603515625	1110.422973632812	368.9052734375	572.4892578125	1102.943359375	460.671142578125	617.406005859375	866.361083984375	306.0812377929688	550.6455688476562	843.6055297851562	360.4125061035156	521.1552734375	994.4222412109375	354.5067138671875	659.738037109375	681.677734375	285.5155944824219	572.1900634765625	756.0399780273438	328.390380859375	621.6924438476562	771.0582885742188	279.3070983886719	923.2898559570312	1487.581665039062	536.743896484375	978.9161376953125	1426.789794921875	592.7548217773438	995.1016845703125	1172.744262695312	677.2691650390625	913.7119750976562	1133.377075195312	631.6890869140625	1050.023193359375	892.8441162109375	608.2127075195312	1068.467529296875	897.5866088867188	698.5657348632812	1018.853515625	1099.311157226562	688.8807983398438	1056.434326171875	704.7327880859375	620.9667358398438	1081.812133789062	782.3239135742188	610.2028198242188	1092.992553710938	792.7473754882812	683.8084106445312	722.999755859375	1671.730834960938	424.583251953125	870.8612670898438	1652.77392578125	265.0000610351562	773.1922607421875	1646.027954101562	252.2826690673828	866.8599243164062	1677.643310546875	438.8085327148438	634.2282104492188	914.1741333007812	414.2650146484375	998.6165771484375	927.0862426757812	513.1342163085938	955.7424926757812	960.2357177734375	395.9879455566406	732.4979248046875	958.16455078125	322.1283874511719	672.296875	471.3316345214844	453.2024841308594	640.2918701171875	613.8916625976562	430.7050170898438	489.9522094726562	86.59767150878906	726.3671264648438	555.9949340820312	287.0904541015625	593.8822021484375	699.2721557617188	33.17609786987305	676.7798461914062	662.1690063476562	52.37562942504883	713.8147583007812	578.9349365234375	38.76080322265625	648.6318969726562	468.6343688964844	133.5058898925781	799.0791015625	1047.80810546875	530.2689208984375	356.761474609375	1031.569702148438	781.1214599609375	450.8984985351562	1116.124389648438	36.43613052368164	361.8379821777344	1070.953979492188	405.7958679199219	346.884521484375	1115.577270507812	54.30022048950195	129.7190856933594	1074.199462890625	49.365478515625	185.4746856689453	1164.474853515625	44.03466033935547	220.9861145019531	1061.356567382812	31.28696632385254	407.3418579101562	
193	1.92	865.10546875	1030.7470703125	583.9564208984375	711.4430541992188	1017.026794433594	531.2476196289062	771.0167846679688	1087.756469726562	557.8859252929688	859.656494140625	1272.831176757812	346.8623657226562	743.9132690429688	1230.895629882812	573.2906494140625	746.626708984375	1495.881958007812	507.3294067382812	830.4854736328125	1398.273071289062	378.5293273925781	794.2393188476562	1365.84423828125	602.9030151367188	654.7117309570312	1450.223510742188	480.4278869628906	638.1638793945312	1449.016845703125	356.9002685546875	554.0884399414062	1325.17138671875	357.7973937988281	523.62890625	1110.826538085938	365.4243774414062	580.1983032226562	1103.27978515625	456.2958374023438	620.5189208984375	865.55712890625	302.1429443359375	554.6646118164062	843.7446899414062	357.8174743652344	526.2399291992188	994.7313842773438	351.4298095703125	660.6011962890625	680.4409790039062	281.5885620117188	574.5590209960938	755.844482421875	325.7379760742188	623.2763061523438	770.0780639648438	275.8403930664062	931.898193359375	1487.716796875	528.4008178710938	988.205078125	1426.794799804688	583.5922241210938	1005.563171386719	1172.568237304688	667.292724609375	923.4281005859375	1133.288330078125	622.7555541992188	1059.19384765625	892.5972900390625	597.5970458984375	1078.97998046875	897.446533203125	687.6918334960938	1029.42529296875	1099.17138671875	678.5411376953125	1065.324096679688	704.4642333984375	610.6798095703125	1090.777099609375	781.990478515625	599.3689575195312	1103.08837890625	792.5379638671875	672.7566528320312	730.1016845703125	1672.058959960938	418.5448608398438	875.5287475585938	1652.734130859375	256.7908935546875	777.72119140625	1645.952514648438	245.537353515625	874.1926879882812	1678.127319335938	430.6252136230469	641.8480834960938	913.4129638671875	406.9440307617188	1006.766540527344	928.5358276367188	503.4530944824219	963.2386474609375	961.1322631835938	386.4429626464844	739.3897094726562	958.07275390625	314.426025390625	680.2317504882812	469.9426574707031	443.0449829101562	648.2308959960938	612.9086303710938	421.8461303710938	492.7671203613281	92.18710327148438	724.5139770507812	561.7755737304688	289.2065734863281	587.408935546875	699.583251953125	33.05546188354492	676.8621826171875	663.4636840820312	53.10866928100586	713.18896484375	579.949951171875	39.18693161010742	648.3285522460938	472.9238586425781	141.8437805175781	795.6512451171875	1054.613647460938	530.9166259765625	346.5180969238281	1039.352294921875	782.3936157226562	440.7289733886719	1117.07470703125	35.82993316650391	361.1021728515625	1076.635620117188	405.5032958984375	337.9820861816406	1116.515014648438	47.94639205932617	127.9939041137695	1075.207885742188	45.61152267456055	184.0753173828125	1165.567504882812	39.70810699462891	219.7248687744141	1062.347290039062	32.46500015258789	406.8234252929688	
194	1.93	873.1031494140625	1031.425659179688	575.4727783203125	719.08203125	1016.9267578125	523.1657104492188	779.0719604492188	1087.907104492188	549.9268798828125	866.1665649414062	1273.49658203125	338.9342651367188	752.4988403320312	1231.113891601562	566.4393920898438	754.7973022460938	1496.225952148438	501.0950622558594	837.259765625	1398.806762695312	371.2266235351562	803.4921875	1366.049438476562	595.8554077148438	662.6111450195312	1450.593017578125	475.1893920898438	644.64111328125	1449.454956054688	351.9078979492188	560.7349853515625	1325.591430664062	353.7088012695312	529.9057006835938	1111.530029296875	361.902099609375	587.948974609375	1103.935302734375	451.8292541503906	623.6788330078125	865.0202026367188	298.3105163574219	558.7748413085938	844.2015380859375	355.3331604003906	531.4041748046875	995.3551635742188	348.3710021972656	661.4617309570312	679.4684448242188	277.918212890625	576.9842529296875	755.9584350585938	323.2923278808594	624.901123046875	769.3884887695312	272.5290222167969	940.3897094726562	1488.070068359375	520.0126342773438	997.365234375	1427.031127929688	574.3761596679688	1015.958862304688	1172.621704101562	657.216796875	933.0919189453125	1133.4296875	613.7410278320312	1068.329223632812	892.60400390625	586.80908203125	1089.457763671875	897.5372924804688	676.6253662109375	1039.923095703125	1099.259155273438	668.0746459960938	1074.193237304688	704.44677734375	600.186767578125	1099.69677734375	781.9110717773438	588.334716796875	1113.170776367188	792.5708618164062	661.4887084960938	737.1608276367188	1672.571044921875	412.4527282714844	880.09619140625	1652.862182617188	248.5586853027344	782.1694946289062	1646.048950195312	238.7847595214844	881.4148559570312	1678.795288085938	422.3724060058594	649.30615234375	912.8560180664062	399.4494323730469	1014.743957519531	930.1907958984375	493.870849609375	970.5776977539062	962.21484375	376.9559020996094	746.2018432617188	958.2046508789062	306.6607360839844	688.4268798828125	468.5105285644531	431.876953125	656.298095703125	612.0016479492188	412.4299011230469	496.2677001953125	98.46574401855469	722.3960571289062	568.0128784179688	291.635986328125	580.3236083984375	700.0574951171875	32.86785888671875	676.8378295898438	665.0629272460938	54.00410079956055	712.29296875	581.146728515625	39.94831848144531	647.9548950195312	478.1764831542969	150.9721984863281	791.6773071289062	1061.401611328125	531.5174560546875	336.9680480957031	1047.053588867188	783.7591552734375	430.8842468261719	1117.931396484375	35.31278991699219	360.7287902832031	1082.289672851562	405.2462768554688	329.8663635253906	1117.699340820312	42.96013641357422	126.8301239013672	1076.402099609375	42.96162796020508	183.1012573242188	1166.834228515625	36.41735458374023	219.0110168457031	1063.197631835938	33.36312103271484	406.4866638183594	
195	1.94	880.9290771484375	1032.271728515625	566.9188842773438	726.5568237304688	1017.059936523438	515.0525512695312	786.964111328125	1088.261962890625	541.9930419921875	872.5735473632812	1274.36474609375	330.9530334472656	760.9388427734375	1231.529907226562	559.5159301757812	762.8804931640625	1496.76806640625	494.8089294433594	843.93896484375	1399.559814453125	363.8838806152344	812.6187744140625	1366.450439453125	588.70849609375	670.4295043945312	1451.197265625	469.88671875	651.1004638671875	1450.17626953125	346.83642578125	567.3159790039062	1326.316284179688	349.5390625	536.1921997070312	1112.513305664062	358.3546142578125	595.7027587890625	1104.897338867188	447.2957763671875	626.8900756835938	864.767578125	294.5856628417969	562.9708251953125	844.9591674804688	352.951171875	536.6282958984375	996.2731323242188	345.3391418457031	662.3909912109375	678.7771606445312	274.51416015625	579.5089721679688	756.3709106445312	321.0492553710938	626.6153564453125	768.9923706054688	269.3725280761719	948.7407836914062	1488.622314453125	511.5755310058594	1006.3779296875	1427.485961914062	565.10498046875	1026.27001953125	1172.900634765625	647.0745239257812	942.6994018554688	1133.79443359375	604.6871948242188	1077.427978515625	892.8693237304688	575.8510131835938	1099.886108398438	897.8491821289062	665.370361328125	1050.325805664062	1099.56591796875	657.514404296875	1083.077758789062	704.68896484375	589.4321899414062	1108.5751953125	782.096923828125	577.072021484375	1123.233032226562	792.837890625	649.9854125976562	744.171875	1673.253662109375	406.3182067871094	884.5595092773438	1653.148559570312	240.3177947998047	786.526123046875	1646.308959960938	232.0383453369141	888.5116577148438	1679.619384765625	414.0655822753906	656.5848388671875	912.5160522460938	391.9020080566406	1022.549133300781	931.9451293945312	484.3751525878906	977.7390747070312	963.41943359375	367.5336303710938	752.883544921875	958.5599975585938	298.8879699707031	696.8523559570312	467.07763671875	419.70263671875	664.4777221679688	611.1943969726562	402.4703369140625	500.5244750976562	105.5127029418945	719.939453125	574.719970703125	294.4165954589844	572.580078125	700.7348022460938	32.60850143432617	676.617919921875	667.0247192382812	55.14509201049805	711.0322875976562	582.5652465820312	41.20371246337891	647.4434204101562	484.4876708984375	160.9185791015625	787.0964965820312	1068.028686523438	531.9949951171875	328.1685791015625	1054.628784179688	785.1058349609375	421.4023132324219	1118.676391601562	34.87507629394531	360.6060180664062	1087.779296875	404.9733276367188	322.5428466796875	1118.925415039062	39.25385284423828	126.0858306884766	1077.608642578125	41.24505615234375	182.4474487304688	1168.124145507812	34.07018661499023	218.6574096679688	1063.89892578125	33.99560546875	406.2795104980469	
